<svg viewBox="0 0 96 96" xmlns="http://www.w3.org/2000/svg" xmlns:xlink="http://www.w3.org/1999/xlink" id="Icons_BassClef" overflow="hidden"><path d="M72.33 39.61C74.7173 39.2555 76.94 40.9034 77.2945 43.2907 77.3103 43.3966 77.3221 43.5032 77.33 43.61 77.5664 46.0896 75.7479 48.2913 73.2684 48.5277 70.7888 48.764 68.5871 46.9456 68.3507 44.466 68.2313 43.2133 68.6407 41.9676 69.48 41.03 70.2164 40.2135 71.2347 39.7061 72.33 39.61Z"/><path d="M72.33 20.61C74.7173 20.2555 76.94 21.9034 77.2945 24.2907 77.3103 24.3966 77.3221 24.5032 77.33 24.61 77.5664 27.0896 75.7479 29.2913 73.2684 29.5277 70.7888 29.764 68.5871 27.9456 68.3507 25.466 68.2313 24.2133 68.6407 22.9676 69.48 22.03 70.2164 21.2135 71.2347 20.7061 72.33 20.61Z"/><path d="M62 24.72C59.9 20.9025 56.6732 17.8258 52.76 15.91 48.0312 13.6311 42.7836 12.6443 37.55 13.05L37.45 13.05C21.92 15 19.59 25.35 19.66 28.69 19.93 37 25 42 30.93 42 35.69 42 41.49 35.85 37.55 29.51 32.84 22.36 26 29 25.18 26 25 25.3 27.92 16 40.67 16.53L40.82 16.53C48.48 17.63 50.88 23.78 51.91 31 53.91 46 43.97 59.47 36.91 66.54 31.29 72.61 22 78.14 18.12 80.8 17.712 81.074 17.5636 81.6039 17.77 82.05L17.77 82.05C17.9869 82.5579 18.5744 82.7939 19.0824 82.577 19.095 82.5716 19.1076 82.5659 19.12 82.56 38.71 73.45 62.78 57.07 64.99 39.56 65.587 34.4216 64.5402 29.2263 62 24.72Z"/></svg>