<svg width="62" height="39" xmlns="http://www.w3.org/2000/svg" xmlns:xlink="http://www.w3.org/1999/xlink" overflow="hidden"><defs><clipPath id="clip0"><rect x="1090" y="504" width="62" height="39"/></clipPath><clipPath id="clip1"><rect x="1091" y="504" width="60" height="39"/></clipPath><clipPath id="clip2"><rect x="1091" y="504" width="60" height="39"/></clipPath><clipPath id="clip3"><rect x="1091" y="494" width="60" height="62"/></clipPath></defs><g clip-path="url(#clip0)" transform="translate(-1090 -504)"><g clip-path="url(#clip1)"><g clip-path="url(#clip2)"><g clip-path="url(#clip3)"><path d="M56.1438 35.3812 44.6188 33.2188 44.6188 33.2812 43.7875 33.75C39.7682 35.8414 35.6032 37.6398 31.325 39.1312 30.7 39.3312 29.9375 39.5625 29.0625 39.8125 31.0938 40.5438 43.2562 44.8125 48.8375 43.5625 52.5875 42.725 55.475 39.3937 56.9625 37.3625 57.3739 36.8082 57.2581 36.0252 56.7038 35.6138 56.539 35.4915 56.3467 35.4116 56.1438 35.3812Z" fill="#FFFFFF" transform="matrix(1 0 0 1.01667 1091 494.966)"/><path d="M14.375 42.1875C20.2375 40.8063 27.3938 39.0625 30.7375 37.975L30.7375 37.975 31.2375 37.8125 31.9438 37.5687 31.9438 37.5687C32.6938 37.3 33.4437 37.0187 34.1812 36.7313L34.6625 36.5375 35.1562 36.3375 35.325 36.2687 35.325 36.2687C39.625 34.5 43.1875 32.6187 43.1875 32.6187 40.8 21.9188 31.625 15.3813 20.0625 17.3375 19.7137 16.2311 18.5619 15.5893 17.4375 15.875L16.375 16.15C15.2352 16.4508 14.5387 17.6006 14.8 18.75 5.58125 22.3438 2.31875 30.1875 4.375 39.375L5.19375 43.0312C5.34314 43.7037 6.00836 44.1285 6.68125 43.9813 8.0375 43.675 10.4313 43.1313 13.1938 42.4813L13.1938 42.4813 14.4438 42.1938ZM19.5938 17.575C23.0713 19.3701 25.9446 22.1476 27.8563 25.5625 29.5511 28.5275 30.7721 31.7392 31.475 35.0812L30.45 35.4375 30.2812 35.4938C29.6133 32.2303 28.432 29.0934 26.7812 26.2 24.4125 22.2 21.3062 19.4688 17.65 18.075ZM12.6625 40C11.5625 33.9438 11.7688 28.1688 13.2875 23.3438 13.8062 21.7132 14.5086 20.1469 15.3813 18.675L17.1562 18.2125C15.9972 19.9151 15.0998 21.7816 14.4938 23.75 13.025 28.3625 12.825 33.9062 13.8688 39.7375Z" fill="#FFFFFF" transform="matrix(1 0 0 1.01667 1091 494.966)"/></g></g></g></g></svg>