<svg width="62" height="39" xmlns="http://www.w3.org/2000/svg" xmlns:xlink="http://www.w3.org/1999/xlink" overflow="hidden"><defs><clipPath id="clip0"><rect x="1024" y="504" width="62" height="39"/></clipPath><clipPath id="clip1"><rect x="1025" y="504" width="60" height="39"/></clipPath><clipPath id="clip2"><rect x="1025" y="504" width="60" height="39"/></clipPath><clipPath id="clip3"><rect x="1025" y="494" width="60" height="62"/></clipPath></defs><g clip-path="url(#clip0)" transform="translate(-1024 -504)"><g clip-path="url(#clip1)"><g clip-path="url(#clip2)"><g clip-path="url(#clip3)"><path d="M56.7063 35.57C56.5407 35.4475 56.3475 35.3677 56.1438 35.3375L47.6906 33.75C46.3877 33.5054 45.1009 33.1814 43.8375 32.78L43.1894 32.5737C41.0856 23.1425 33.71 16.9438 24.0744 16.9438 22.7302 16.9463 21.3886 17.0617 20.0638 17.2887 19.7153 16.1821 18.5633 15.54 17.4388 15.8256L16.3762 16.1006C15.2359 16.4014 14.5392 17.552 14.8012 18.7019 5.58125 22.2962 2.31875 30.1425 4.375 39.3325L5.19375 42.9894C5.32031 43.5614 5.82722 43.9689 6.41313 43.9694 6.50331 43.9691 6.59319 43.9593 6.68125 43.94 8.03813 43.6338 10.4313 43.09 13.1944 42.44L14.3756 42.1462C18.5431 41.1637 23.3587 40 27 39.0169 27.9963 39.3794 29.4012 39.8919 29.5219 39.9331 32.0975 40.8419 40.755 43.75 46.4431 43.75 47.2479 43.7609 48.0516 43.6846 48.84 43.5225 52.59 42.6844 55.4775 39.3525 56.965 37.3206 57.3771 36.7668 57.2622 35.9837 56.7084 35.5716 56.7077 35.5711 56.7069 35.5705 56.7063 35.57ZM21.97 18.2962C22.68 18.2281 23.3838 18.1938 24.0744 18.1938 32.7831 18.1938 39.6919 23.7275 41.8325 32.3288 38.7715 34.0286 35.5196 35.3592 32.145 36.2925 31.3984 32.9276 30.1507 29.6938 28.4437 26.6994 26.5152 23.2541 23.6476 20.4276 20.175 18.5487 20.17 18.5487 20.1694 18.5387 20.175 18.5381 20.3225 18.5156 21.4444 18.3463 21.97 18.2962ZM16.6875 17.3125 17.7444 17.0387C17.8201 17.0194 17.8981 17.0095 17.9762 17.0094 18.3334 17.0115 18.6573 17.2194 18.8081 17.5431L15.9956 18.2725C15.9667 17.8281 16.2568 17.4256 16.6875 17.3125ZM12.8281 41.2419C10.78 41.7231 8.62063 42.2206 6.41375 42.7163L5.595 39.0625C3.66313 30.4269 6.80812 23.6469 14.2369 20.2938 14.545 20.155 15.4394 19.7938 15.5631 19.7463 15.5681 19.7463 15.5719 19.75 15.5688 19.755 14.7144 21.2186 14.0303 22.7752 13.53 24.3944 11.9875 29.2419 11.75 35.0625 12.8281 41.2419ZM27.0556 37.7069 26.6738 37.81C23.6931 38.6138 19.4594 39.6637 14.0737 40.935L14.0463 40.9419C13.0181 34.995 13.2469 29.4094 14.7238 24.7706 15.3326 22.7936 16.2311 20.9179 17.39 19.2044L18.1706 19.0019C21.875 20.5 24.9738 23.2931 27.3631 27.3281 29.0208 30.236 30.2286 33.3781 30.9456 36.6475 29.6625 37.0194 28.3631 37.3725 27.0706 37.71ZM48.5669 42.3013C47.8678 42.4435 47.1553 42.5097 46.4419 42.4987 40.9775 42.4987 32.4269 39.6325 29.9369 38.755L29.125 38.4588C33.6462 37.235 38.4719 35.7375 42.1987 33.57L42.8138 33.7656 43.4619 33.9719C44.7733 34.3889 46.1092 34.725 47.4619 34.9781L52.8406 35.9881 55.9525 36.5794C55.9556 36.5796 55.9579 36.5823 55.9577 36.5854 55.9576 36.5866 55.9571 36.5878 55.9562 36.5887 54.3256 38.8069 51.7269 41.5956 48.5669 42.3013Z" stroke="#FFFFFF" stroke-width="1.66667" transform="matrix(1 0 0 1.01667 1025 494.966)"/></g></g></g></g></svg>