<svg width="97" height="39" xmlns="http://www.w3.org/2000/svg" xmlns:xlink="http://www.w3.org/1999/xlink" overflow="hidden"><defs><clipPath id="clip0"><path d="M1143 45 1240 45 1240 84 1143 84Z" fill-rule="evenodd" clip-rule="evenodd"/></clipPath><clipPath id="clip1"><path d="M1143 46 1239 46 1239 83 1143 83Z" fill-rule="evenodd" clip-rule="evenodd"/></clipPath><clipPath id="clip2"><path d="M1143 46 1239 46 1239 83 1143 83Z" fill-rule="evenodd" clip-rule="evenodd"/></clipPath><clipPath id="clip3"><path d="M1143-3 1239-3 1239 93 1143 93Z" fill-rule="evenodd" clip-rule="evenodd"/></clipPath></defs><g clip-path="url(#clip0)" transform="translate(-1143 -45)"><g clip-path="url(#clip1)"><g clip-path="url(#clip2)"><g clip-path="url(#clip3)"><path d="M67.9973 13.7966 26.6076 13.7966C18.4437 13.7966 11.8256 20.4147 11.8256 28.5786 11.8256 36.7425 18.4437 43.3606 26.6076 43.3606L67.9973 43.3606C76.1612 43.3606 82.7793 36.7425 82.7793 28.5786 82.7793 20.4147 76.1612 13.7966 67.9973 13.7966ZM67.9973 37.4478C63.0989 37.4478 59.1281 33.477 59.1281 28.5786 59.1281 23.6802 63.0989 19.7094 67.9973 19.7094 72.8957 19.7094 76.8665 23.6802 76.8665 28.5786 76.8611 33.4747 72.8934 37.4424 67.9973 37.4478Z" fill="#A5A5A5" transform="matrix(1.01475 0 -0 1 1143 -2.14446)"/><path d="M67.9973 51.2444 26.6076 51.2444C18.4437 51.2444 11.8256 57.8625 11.8256 66.0264 11.8256 74.1903 18.4437 80.8084 26.6076 80.8084L67.9973 80.8084C76.1612 80.8084 82.7793 74.1903 82.7793 66.0264 82.7793 57.8625 76.1612 51.2444 67.9973 51.2444ZM26.6076 74.8956C21.7093 74.8956 17.7384 70.9247 17.7384 66.0264 17.7384 61.128 21.7093 57.1572 26.6076 57.1572 31.506 57.1572 35.4769 61.128 35.4769 66.0264 35.4714 70.9225 31.5037 74.8902 26.6076 74.8956Z" fill="#A5A5A5" transform="matrix(1.01475 0 -0 1 1143 -2.14446)"/></g></g></g></g></svg>